<svg xmlns="http://www.w3.org/2000/svg" xmlns:xlink="http://www.w3.org/1999/xlink" width="86" height="69" viewBox="0 0 86 69">
  <defs>
    <clipPath id="clip-Icon-javascript">
      <rect width="86" height="69"/>
    </clipPath>
  </defs>
  <g id="Icon-javascript" clip-path="url(#clip-Icon-javascript)">
    <path id="Icon_simple-javascript" data-name="Icon simple-javascript" d="M0,0H69V69H0ZM63.348,52.544c-.5-3.148-2.553-5.793-8.634-8.26-2.116-.992-4.468-1.682-5.166-3.277a3.4,3.4,0,0,1-.132-2.027c.431-1.857,2.631-2.415,4.356-1.9a4.677,4.677,0,0,1,2.806,2.588c2.973-1.944,2.973-1.944,5.046-3.234a11.866,11.866,0,0,0-1.685-2.243c-1.811-2.027-4.223-3.062-8.148-2.973l-2.027.256a9.268,9.268,0,0,0-4.916,2.889,9.02,9.02,0,0,0,1.636,12.854c3.924,2.932,9.663,3.576,10.4,6.339.69,3.364-2.5,4.442-5.652,4.054-2.332-.518-3.622-1.685-5.046-3.841L40.92,56.793a11.626,11.626,0,0,0,2.329,3.188c5,5.049,17.509,4.79,19.754-2.887a9.731,9.731,0,0,0,.213-4.744l.132.193ZM37.522,31.714H31.059c0,5.572-.026,11.109-.026,16.689,0,3.542.181,6.794-.4,7.794-.949,1.981-3.392,1.728-4.5,1.38a5.547,5.547,0,0,1-2.386-2.458,2.467,2.467,0,0,0-.365-.564L18.135,57.79a10.169,10.169,0,0,0,3.806,4.361,12.653,12.653,0,0,0,9.22,1.164,8.075,8.075,0,0,0,5.207-4.057c1.466-2.674,1.156-5.951,1.141-9.62.035-5.905,0-11.813,0-17.765l.012-.161Z" transform="translate(9)"/>
  </g>
</svg>
