<svg xmlns="http://www.w3.org/2000/svg" xmlns:xlink="http://www.w3.org/1999/xlink" width="86" height="69" viewBox="0 0 86 69">
  <defs>
    <clipPath id="clip-icon-react">
      <rect width="86" height="69"/>
    </clipPath>
  </defs>
  <g id="icon-react" clip-path="url(#clip-icon-react)">
    <path id="Icon_awesome-react" data-name="Icon awesome-react" d="M64.407,24.611q-1.247-.416-2.495-.785c.139-.57.262-1.14.385-1.71,1.894-9.179.647-16.556-3.558-18.989C54.689.8,48.082,3.219,41.4,9.041c-.662.57-1.309,1.17-1.925,1.771-.416-.4-.847-.8-1.278-1.186C31.187,3.4,24.164.786,19.96,3.235c-4.035,2.341-5.236,9.287-3.542,17.973.169.862.354,1.71.57,2.572-.986.277-1.956.585-2.865.909C5.9,27.537,0,32.034,0,36.686c0,4.805,6.284,9.626,14.831,12.552.693.231,1.386.462,2.095.662-.231.924-.431,1.833-.616,2.772C14.693,61.219,15.955,68,19.99,70.321c4.158,2.4,11.15-.062,17.958-6.022.539-.477,1.078-.97,1.617-1.494.678.662,1.386,1.294,2.095,1.91,6.592,5.668,13.106,7.962,17.126,5.637,4.158-2.4,5.514-9.687,3.758-18.558q-.208-1.016-.462-2.079c.493-.139.97-.293,1.448-.447,8.886-2.942,15.324-7.7,15.324-12.583,0-4.666-6.068-9.194-14.446-12.074ZM43.569,11.536C49.3,6.546,54.643,4.59,57.076,5.991c2.6,1.494,3.6,7.531,1.971,15.463-.108.524-.216,1.032-.354,1.54a78.841,78.841,0,0,0-10.365-1.633,77.813,77.813,0,0,0-6.561-8.178c.6-.57,1.186-1.109,1.8-1.648ZM25.75,44.679c.785,1.34,1.586,2.68,2.433,3.989a69.739,69.739,0,0,1-7.146-1.155,71.943,71.943,0,0,1,2.51-6.853c.708,1.355,1.432,2.7,2.2,4.02ZM21.084,26.151c2.218-.493,4.574-.893,7.023-1.2-.816,1.278-1.617,2.587-2.372,3.912-.755,1.309-1.494,2.649-2.187,4-.97-2.295-1.787-4.543-2.464-6.715ZM25.3,36.763c1.016-2.125,2.125-4.2,3.3-6.253s2.433-4.035,3.758-5.991c2.31-.169,4.666-.262,7.069-.262s4.774.092,7.069.262q1.964,2.911,3.742,5.96T53.58,36.7q-1.548,3.188-3.327,6.284c-1.17,2.048-2.418,4.035-3.727,6.006-2.295.169-4.682.246-7.1.246s-4.759-.077-7.023-.216q-2.01-2.934-3.789-6.006c-1.186-2.048-2.279-4.127-3.311-6.253Zm27.814,7.885c.785-1.355,1.525-2.726,2.249-4.112a71.493,71.493,0,0,1,2.6,6.823,67.646,67.646,0,0,1-7.238,1.232C51.562,47.3,52.348,45.972,53.118,44.648Zm2.218-11.782c-.724-1.355-1.463-2.711-2.233-4.035q-1.132-1.964-2.356-3.881a70.873,70.873,0,0,1,7.069,1.232,68.158,68.158,0,0,1-2.48,6.684ZM39.457,15.54a67.629,67.629,0,0,1,4.559,5.514c-3.049-.139-6.114-.139-9.164,0C36.362,19.067,37.917,17.219,39.457,15.54ZM21.592,6.1c2.587-1.509,8.332.647,14.384,6.006.385.339.77.708,1.17,1.078a78.245,78.245,0,0,0-6.607,8.178,81.183,81.183,0,0,0-10.349,1.6c-.2-.785-.37-1.586-.539-2.387C18.2,13.122,19.159,7.5,21.592,6.1ZM17.819,46.7c-.647-.185-1.278-.385-1.91-.6a31.411,31.411,0,0,1-9.7-4.805,6.911,6.911,0,0,1-2.9-4.6c0-2.818,4.867-6.422,11.89-8.871.878-.308,1.771-.585,2.664-.847a81.893,81.893,0,0,0,3.773,9.8A84.185,84.185,0,0,0,17.819,46.7ZM35.776,61.789a28.189,28.189,0,0,1-8.686,5.437,6.817,6.817,0,0,1-5.437.2c-2.449-1.417-3.465-6.853-2.079-14.169.169-.862.354-1.725.57-2.572A77.047,77.047,0,0,0,30.6,52.194a81.276,81.276,0,0,0,6.653,8.224C36.762,60.9,36.269,61.358,35.776,61.789Zm3.773-3.742c-1.571-1.694-3.142-3.573-4.666-5.591,1.478.062,3,.092,4.543.092,1.586,0,3.142-.031,4.682-.108a66.416,66.416,0,0,1-4.559,5.606Zm20.129,4.62a6.845,6.845,0,0,1-2.541,4.821c-2.449,1.417-7.67-.431-13.306-5.267-.647-.554-1.294-1.155-1.956-1.771a76.187,76.187,0,0,0,6.5-8.255,75.921,75.921,0,0,0,10.5-1.617c.154.631.293,1.263.416,1.879a28.075,28.075,0,0,1,.385,10.211Zm2.8-16.556c-.431.139-.862.277-1.309.4a78.236,78.236,0,0,0-3.927-9.826A77.846,77.846,0,0,0,61.019,27c.8.231,1.571.477,2.31.724,7.177,2.464,12.213,6.13,12.213,8.933,0,3.019-5.375,6.915-13.06,9.456ZM39.426,43.8a7.054,7.054,0,1,0-7.054-7.054A7.053,7.053,0,0,0,39.426,43.8Z" transform="translate(4 -2.251)"/>
  </g>
</svg>
