<svg xmlns="http://www.w3.org/2000/svg" xmlns:xlink="http://www.w3.org/1999/xlink" width="86" height="69" viewBox="0 0 86 69">
  <defs>
    <clipPath id="clip-icon-git">
      <rect width="86" height="69"/>
    </clipPath>
  </defs>
  <g id="icon-git" clip-path="url(#clip-icon-git)">
    <path id="Icon_awesome-git-alt" data-name="Icon awesome-git-alt" d="M67.7,33.678,37.581,3.551a4.447,4.447,0,0,0-6.286,0L25.033,9.809l7.935,7.935a5.28,5.28,0,0,1,6.683,6.728L47.3,32.12a5.285,5.285,0,1,1-3.162,2.98L37,27.971V46.739a5.283,5.283,0,1,1-4.346-.154V27.64a5.283,5.283,0,0,1-2.871-6.931l-7.823-7.832L1.3,33.537a4.445,4.445,0,0,0,0,6.286L31.429,69.949a4.445,4.445,0,0,0,6.284,0L67.7,39.963a4.445,4.445,0,0,0,0-6.286Z" transform="translate(8 -2.25)"/>
  </g>
</svg>
