<svg xmlns="http://www.w3.org/2000/svg" xmlns:xlink="http://www.w3.org/1999/xlink" width="86" height="69" viewBox="0 0 86 69">
  <defs>
    <clipPath id="clip-icon-github">
      <rect width="86" height="69"/>
    </clipPath>
  </defs>
  <g id="icon-github" clip-path="url(#clip-icon-github)">
    <path id="Icon_awesome-github" data-name="Icon awesome-github" d="M23.67,56.121c0,.285-.328.514-.742.514-.471.043-.8-.185-.8-.514,0-.285.328-.514.742-.514C23.3,55.565,23.67,55.793,23.67,56.121Zm-4.437-.642c-.1.285.185.614.614.7a.669.669,0,0,0,.885-.285c.086-.285-.185-.614-.614-.742A.732.732,0,0,0,19.233,55.479Zm6.306-.243c-.414.1-.7.371-.656.7.043.285.414.471.842.371s.7-.371.656-.656S25.953,55.194,25.539,55.237ZM34.928.563C15.138.563,0,15.586,0,35.376A35.771,35.771,0,0,0,24.184,69.5c1.826.328,2.468-.8,2.468-1.726,0-.885-.043-5.764-.043-8.76,0,0-9.987,2.14-12.085-4.252,0,0-1.627-4.152-3.966-5.222,0,0-3.267-2.24.228-2.2a7.531,7.531,0,0,1,5.507,3.681c3.125,5.507,8.361,3.924,10.4,2.982A7.93,7.93,0,0,1,28.978,49.2C21,48.317,12.955,47.161,12.955,33.435c0-3.924,1.084-5.893,3.367-8.4a13.48,13.48,0,0,1,.371-9.688c2.982-.927,9.845,3.852,9.845,3.852a33.706,33.706,0,0,1,17.92,0S51.321,14.4,54.3,15.344a13.474,13.474,0,0,1,.371,9.688c2.283,2.525,3.681,4.494,3.681,8.4,0,13.768-8.4,14.867-16.379,15.766,1.313,1.127,2.426,3.267,2.426,6.62,0,4.808-.043,10.758-.043,11.928,0,.927.656,2.055,2.468,1.726,14.268-4.737,23.941-18.277,23.941-34.1C70.768,15.586,54.717.563,34.928.563ZM13.868,49.772c-.185.143-.143.471.1.742.228.228.556.328.742.143.185-.143.143-.471-.1-.742C14.382,49.686,14.054,49.587,13.868,49.772Zm-1.541-1.156c-.1.185.043.414.328.556a.425.425,0,0,0,.614-.1c.1-.185-.043-.414-.328-.556C12.656,48.431,12.427,48.474,12.327,48.616ZM16.95,53.7c-.228.185-.143.614.185.885.328.328.742.371.927.143.185-.185.1-.614-.185-.885C17.564,53.51,17.136,53.467,16.95,53.7Zm-1.627-2.1c-.228.143-.228.514,0,.842s.614.471.8.328a.651.651,0,0,0,0-.885C15.923,51.556,15.552,51.413,15.324,51.6Z" transform="translate(8 -0.563)"/>
  </g>
</svg>
