<svg xmlns="http://www.w3.org/2000/svg" xmlns:xlink="http://www.w3.org/1999/xlink" width="86" height="69" viewBox="0 0 86 69">
  <defs>
    <clipPath id="clip-icon-visual-studio-code">
      <rect width="86" height="69"/>
    </clipPath>
  </defs>
  <g id="icon-visual-studio-code" clip-path="url(#clip-icon-visual-studio-code)">
    <path id="Icon_awesome-code" data-name="Icon awesome-code" d="M37.591,68.935,29.369,66.55a1.62,1.62,0,0,1-1.105-2.008L46.661,1.17A1.62,1.62,0,0,1,48.669.065L56.89,2.451A1.62,1.62,0,0,1,58,4.459L39.6,67.83a1.615,1.615,0,0,1-2.008,1.105ZM22.226,53.814l5.863-6.254a1.617,1.617,0,0,0-.108-2.318L15.77,34.5,27.981,23.759a1.606,1.606,0,0,0,.108-2.318l-5.863-6.254a1.619,1.619,0,0,0-2.291-.067L.514,33.314a1.607,1.607,0,0,0,0,2.359L19.935,53.881a1.607,1.607,0,0,0,2.291-.067Zm44.1.081L85.746,35.686a1.607,1.607,0,0,0,0-2.359L66.325,15.106a1.632,1.632,0,0,0-2.291.067l-5.863,6.254a1.617,1.617,0,0,0,.108,2.318L70.489,34.5,58.279,45.242a1.606,1.606,0,0,0-.108,2.318l5.863,6.254a1.619,1.619,0,0,0,2.291.081Z" transform="translate(0.002 -0.003)"/>
  </g>
</svg>
